<?xml version="1.0" encoding="utf-8"?>
<!-- Generator: Adobe Illustrator 22.0.1, SVG Export Plug-In . SVG Version: 6.00 Build 0)  -->
<svg version="1.1" id="레이어_1" xmlns="http://www.w3.org/2000/svg" xmlns:xlink="http://www.w3.org/1999/xlink" x="0px"
	 y="0px" viewBox="0 0 156 54" style="enable-background:new 0 0 156 54;" xml:space="preserve">
<style type="text/css">
	.st0{fill:#EC4043;}
</style>
<g>
	<path class="st0" d="M139.3,3c2,0,3.9,1.1,4.9,2.8l5.9,10.2c3.9,6.8,3.9,15.2,0,22l-5.9,10.2c-1,1.8-2.9,2.8-4.9,2.8H16.7
		c-2,0-3.9-1.1-4.9-2.8L5.9,38C2,31.2,2,22.8,5.9,16l5.9-10.2c1-1.8,2.9-2.8,4.9-2.8H139.3 M139.3,0H16.7c-3.1,0-6,1.7-7.5,4.3
		L3.3,14.5c-4.4,7.7-4.4,17.2,0,25l5.9,10.2c1.5,2.7,4.4,4.3,7.5,4.3h122.6c3.1,0,6-1.7,7.5-4.3l5.9-10.2c4.4-7.7,4.4-17.2,0-25
		l-5.9-10.2C145.3,1.7,142.4,0,139.3,0L139.3,0z"/>
</g>
</svg>
